<svg width="765" height="655" viewBox="0 0 765 655" fill="none" xmlns="http://www.w3.org/2000/svg">
<path d="M382.5 654.066C171.251 654.066 0 644.068 0 631.734C0 619.401 171.251 609.402 382.5 609.402C593.749 609.402 765 619.401 765 631.734C765 644.068 593.749 654.066 382.5 654.066Z" fill="#F5F5F5"/>
<path d="M612.426 24.95C631.404 38.5226 599.643 66.9502 627.952 73.342C656.261 79.7338 635.843 129.27 608.717 132.19C581.592 135.109 530.615 142.902 524.046 102.401C518.128 65.4312 536.968 65.8849 534.64 50.5762C531.799 31.8941 537.185 20.097 554.367 10.1542C577.804 -3.53677 618.344 -5.549 612.426 24.95Z" fill="#263238"/>
<path d="M521.837 622.758C538.625 621.476 547.285 609.994 546.674 597.822C546.358 591.115 567.822 590.523 567.822 590.523C563.423 611.316 567.546 614.196 568.69 619.661C569.834 625.125 569.203 630.965 564.744 631.083C559.418 631.201 556.991 630.195 550.383 630.452C542.649 630.748 537.441 631.063 523.731 631.083C518.266 631.083 514.38 623.369 521.837 622.758Z" fill="#00CB20"/>
<path d="M524.894 231.124C524.894 231.124 523.237 328.559 533.91 401.966C534.304 464.088 545.214 600.663 545.214 600.663C552.539 602.395 560.176 602.321 567.467 600.446C567.467 600.446 599.031 500.703 588.99 400.92C604.772 296.363 604.259 231.124 604.259 231.124H524.894Z" fill="#263238"/>
<path opacity="0.2" d="M602.385 279.595C600.412 308.851 596.664 350.26 588.99 400.9C589.74 408.397 590.272 415.913 590.568 423.37C557.11 363.221 553.046 268.271 602.385 279.595Z" fill="black"/>
<path d="M655.393 621.042C655.985 612.292 655.321 603.503 653.42 594.942C653.42 594.942 671.945 590.996 672.536 597.467C673.582 609.304 680.171 620.312 694.77 622.225C703.114 623.31 699.997 631.083 694.04 631.083C679.125 631.083 684.176 630.846 675.713 630.55C668.473 630.314 667.013 631.201 661.193 631.083C656.439 630.984 655.354 626.348 655.393 621.042Z" fill="#00CB20"/>
<path d="M553.796 231.124C553.796 231.124 582.164 366.535 600.846 424.455C620.436 485.197 651.901 595.987 652.138 600.545C660.72 602.162 668.788 602.754 675.496 600.545C675.496 600.545 686.425 475.984 661.331 410.034C655.018 272.375 617.93 231.223 617.93 231.223L553.796 231.124Z" fill="#263238"/>
<path d="M548.509 105.754C548.598 105.756 548.686 105.736 548.766 105.694C548.845 105.653 548.913 105.592 548.962 105.518C549.179 105.202 549.436 104.886 549.672 104.571C551.31 102.46 553.322 99.8361 551.33 96.7981C549.002 93.2668 544.188 94.4702 540.657 95.358L539.197 95.713C536.554 96.5197 533.715 96.4014 531.148 95.3777C527.952 93.7995 526.177 90.4852 524.461 87.2499C523.438 85.1288 522.16 83.1412 520.653 81.3316C520.239 80.8581 519.805 80.4044 519.351 79.9506C517.616 78.3939 516.265 76.4558 515.405 74.2888C515.388 74.2196 515.356 74.1548 515.312 74.0987C515.267 74.0426 515.212 73.9964 515.149 73.9629C515.086 73.9295 515.016 73.9096 514.945 73.9046C514.874 73.8996 514.802 73.9095 514.735 73.9337C514.665 73.9541 514.599 73.9881 514.542 74.0339C514.485 74.0798 514.438 74.1365 514.403 74.2007C514.368 74.2649 514.347 74.3354 514.339 74.4081C514.332 74.4808 514.339 74.5542 514.36 74.6242C515.274 76.9666 516.735 79.0565 518.621 80.72L519.884 82.0615C521.331 83.8112 522.557 85.7327 523.533 87.7825C525.329 91.1559 527.183 94.6477 530.714 96.3838C533.501 97.5177 536.592 97.6639 539.473 96.7981L540.973 96.443C544.346 95.5947 548.548 94.4702 550.462 97.4293C552.02 99.7967 550.462 101.809 548.844 103.92C548.607 104.255 548.351 104.571 548.114 104.886C548.028 105.004 547.992 105.151 548.015 105.295C548.037 105.44 548.115 105.569 548.232 105.656C548.313 105.714 548.409 105.748 548.509 105.754Z" fill="white"/>
<path d="M501.951 90.9982L505.897 83.9357C507.295 81.3794 509.335 79.2309 511.815 77.7018L516.55 74.8215C518.069 73.8962 519.865 73.5334 521.624 73.7966C523.384 74.0598 524.995 74.9322 526.177 76.2617L529.846 80.3847C530.518 81.1344 531.034 82.0104 531.364 82.9617C531.693 83.913 531.83 84.9205 531.766 85.9252C531.701 86.9299 531.437 87.9117 530.989 88.8132C530.541 89.7147 529.918 90.5179 529.156 91.1758L525.625 94.2533C525.625 94.2533 516.826 103.999 506.568 105.912L504.753 103.604C503.334 101.868 502.342 99.8229 501.855 97.6338C501.369 95.4448 501.402 93.1723 501.951 90.9982Z" fill="#FFC3BD"/>
<path d="M528.603 116.92L526.769 119.248C526.059 120.136 525.309 121.043 524.539 121.931C522.981 123.707 521.423 125.482 519.765 127.139C516.614 130.418 513.189 133.42 509.527 136.115C506.216 138.585 502.611 140.633 498.795 142.211C497.033 142.893 495.227 143.453 493.39 143.888C492.5 144.098 491.597 144.25 490.687 144.342H490.351H490.174C490.174 144.342 489.996 144.342 490.174 144.342H490.608H491.515L492.521 144.519C493.332 144.683 494.12 144.941 494.869 145.289C495.73 145.652 496.544 146.115 497.296 146.67C498.015 147.189 498.676 147.785 499.268 148.445C499.752 148.992 500.187 149.58 500.57 150.201C500.841 150.673 501.085 151.161 501.3 151.661C501.445 152.015 501.57 152.377 501.675 152.746C501.747 152.998 501.799 153.255 501.833 153.515C501.862 153.758 501.862 154.003 501.833 154.245C501.833 154.58 501.833 154.423 501.715 154.245C501.638 153.484 501.638 152.718 501.715 151.957C501.987 149.659 502.396 147.38 502.938 145.131C504.003 140.199 505.483 135.011 507.002 129.783L516.708 97.9818V97.8832C517.282 95.9797 517.159 93.934 516.362 92.1128C515.564 90.2916 514.144 88.814 512.356 87.9449C510.568 87.0757 508.529 86.8719 506.604 87.37C504.679 87.8681 502.995 89.0355 501.853 90.6628C495.221 100.206 489.249 110.192 483.979 120.55C481.219 125.896 478.736 131.381 476.542 136.983C475.339 140.091 474.318 143.266 473.484 146.492C472.972 148.488 472.609 150.519 472.399 152.568C472.285 153.98 472.285 155.398 472.399 156.81C472.521 159.111 473.042 161.374 473.938 163.497C474.284 164.32 474.686 165.117 475.141 165.884C476.351 167.871 477.94 169.6 479.817 170.974C480.851 171.754 481.969 172.416 483.151 172.947C484.227 173.421 485.352 173.778 486.505 174.012C487.013 174.125 487.526 174.211 488.043 174.269C488.517 174.269 488.99 174.308 489.464 174.387H490.47H491.535C493.508 174.387 495.362 174.387 497.256 174.19C500.998 173.877 504.703 173.217 508.323 172.217C515.205 170.239 521.759 167.261 527.775 163.379C533.467 159.755 538.758 155.536 543.557 150.793C545.885 148.465 548.134 146.078 550.225 143.553C551.27 142.29 552.296 141.008 553.302 139.607L554.782 137.536L555.551 136.451L556.439 135.109C558.76 131.536 559.623 127.209 558.851 123.019C558.078 118.829 555.729 115.095 552.286 112.584C548.843 110.074 544.569 108.98 540.343 109.526C536.117 110.072 532.262 112.217 529.57 115.52L528.603 116.92Z" fill="#FFC3BD"/>
<path d="M521.107 136.253C521.442 144.145 508.935 162.511 524.382 173.125C521.501 179.575 519.055 223.312 524.895 231.124C533.417 237.397 579.56 236.174 617.812 231.124C619.43 215.342 610.73 182.554 621.383 131.479C621.97 128.681 621.961 125.791 621.356 122.997C620.751 120.202 619.564 117.567 617.872 115.262C616.18 112.958 614.021 111.036 611.536 109.622C609.051 108.208 606.296 107.334 603.45 107.057C600.235 106.721 596.841 106.465 593.35 106.287C581.167 105.418 568.938 105.418 556.755 106.287C552.809 106.642 548.726 107.155 544.918 107.708C538.108 108.649 531.895 112.096 527.491 117.375C523.088 122.654 520.811 129.385 521.107 136.253Z" fill="#00CB20"/>
<path d="M594.513 65.0759C591.594 76.9125 588.753 96.0681 593.389 106.287C593.389 106.287 577.824 107.056 555.61 124.792C545.155 109.424 555.433 106.425 555.433 106.425C564.665 104.255 566.145 93.03 566.125 84.2709L594.513 65.0759Z" fill="#FFC3BD"/>
<path opacity="0.2" d="M566.125 84.2711L582.262 73.3617C582.405 75.8328 581.909 78.2989 580.822 80.5228C577.427 86.8863 571.893 91.8467 565.198 94.5294C565.864 91.1517 566.175 87.7135 566.125 84.2711Z" fill="black"/>
<path d="M602.188 43.4939C597.591 62.6298 596.052 70.8365 584.689 79.0037C567.625 91.3927 545.589 81.6078 544.484 61.4856C543.478 43.3755 551.152 15.1058 571.097 10.6868C591.042 6.26776 606.764 24.3383 602.188 43.4939Z" fill="#FFC3BD"/>
<path d="M573.484 51.4838C573.208 53.062 572.142 54.1864 571.116 54.0089C570.091 53.8313 569.479 52.3912 569.755 50.8327C570.031 49.2742 571.097 48.1103 572.122 48.3076C573.148 48.5049 573.76 49.9055 573.484 51.4838Z" fill="#263238"/>
<path d="M554.131 48.3272C553.855 49.9054 552.789 51.0299 551.763 50.8523C550.738 50.6748 550.126 49.2346 550.402 47.6761C550.678 46.1176 551.744 44.9537 552.77 45.151C553.795 45.3483 554.328 46.7489 554.131 48.3272Z" fill="#263238"/>
<path d="M553.145 45.3483L549.554 43.5925C549.554 43.5925 550.955 46.8475 553.145 45.3483Z" fill="#263238"/>
<path d="M558.767 49.6095C556.722 52.9547 554.234 56.0073 551.369 58.6842C552.075 59.3883 552.926 59.9297 553.863 60.2704C554.8 60.6112 555.801 60.7431 556.794 60.657L558.767 49.6095Z" fill="#ED847E"/>
<path d="M564.823 68.1536C563.924 68.1489 563.027 68.0697 562.14 67.9169C562.018 67.893 561.909 67.8215 561.839 67.718C561.769 67.6145 561.742 67.4874 561.765 67.3645C561.775 67.3045 561.796 67.2471 561.829 67.1955C561.861 67.144 561.903 67.0994 561.952 67.0644C562.002 67.0295 562.058 67.0049 562.118 66.992C562.177 66.9792 562.238 66.9784 562.298 66.9897C564.252 67.3804 566.27 67.3053 568.19 66.7707C570.109 66.236 571.875 65.2567 573.346 63.9122C573.39 63.8681 573.442 63.833 573.499 63.8091C573.557 63.7852 573.619 63.7729 573.681 63.7729C573.743 63.7729 573.805 63.7852 573.863 63.8091C573.92 63.833 573.972 63.8681 574.016 63.9122C574.1 64.0001 574.146 64.1166 574.146 64.2377C574.146 64.3588 574.1 64.4753 574.016 64.5632C571.538 66.9146 568.239 68.2032 564.823 68.1536Z" fill="#263238"/>
<path d="M603.588 61.3278C602.855 62.9654 601.783 64.4291 600.444 65.6226C599.104 66.8161 597.527 67.7123 595.816 68.2522C591.456 69.4556 589.286 64.6617 590.529 59.8087C591.653 55.4292 595.263 49.5306 599.643 50.4775C604.022 51.4245 605.601 57.0271 603.588 61.3278Z" fill="#FFC3BD"/>
<path d="M578.988 41.6199C578.869 41.5823 578.758 41.521 578.663 41.4396C578.568 41.3582 578.491 41.2585 578.435 41.1464C577.939 40.0756 577.199 39.136 576.274 38.4028C575.349 37.6697 574.265 37.1635 573.109 36.9247C572.987 36.9105 572.869 36.8723 572.762 36.8126C572.655 36.7528 572.561 36.6726 572.485 36.5764C572.409 36.4802 572.353 36.37 572.319 36.2521C572.286 36.1341 572.276 36.0108 572.29 35.889C572.304 35.7672 572.343 35.6495 572.402 35.5424C572.462 35.4354 572.542 35.3412 572.638 35.2651C572.735 35.1891 572.845 35.1328 572.963 35.0993C573.081 35.0659 573.204 35.056 573.326 35.0703C574.794 35.3333 576.176 35.9456 577.357 36.8555C578.539 37.7654 579.483 38.9462 580.112 40.2981C580.223 40.5208 580.241 40.7781 580.164 41.0143C580.086 41.2505 579.919 41.4468 579.698 41.5607C579.477 41.6683 579.224 41.6894 578.988 41.6199Z" fill="#263238"/>
<path d="M546.891 36.5103C546.65 36.4716 546.432 36.3451 546.279 36.1552C546.129 35.956 546.063 35.7053 546.096 35.4578C546.129 35.2102 546.259 34.9858 546.457 34.8335C547.626 33.9041 549.001 33.2671 550.466 32.9755C551.931 32.6839 553.444 32.7459 554.881 33.1566C555.009 33.1883 555.13 33.2465 555.234 33.3276C555.339 33.4086 555.425 33.5107 555.488 33.6272C555.551 33.7437 555.588 33.8721 555.598 34.0041C555.608 34.136 555.591 34.2686 555.546 34.3933C555.502 34.518 555.432 34.632 555.341 34.728C555.25 34.8239 555.14 34.8998 555.017 34.9505C554.895 35.0013 554.764 35.0259 554.631 35.0227C554.499 35.0195 554.369 34.9887 554.249 34.9321C553.11 34.6207 551.912 34.5853 550.756 34.8289C549.6 35.0725 548.518 35.588 547.601 36.3328C547.5 36.408 547.386 36.4625 547.264 36.4929C547.142 36.5234 547.015 36.5293 546.891 36.5103Z" fill="#263238"/>
<path d="M572.576 48.4655L568.966 46.7097C568.966 46.7097 570.387 50.0042 572.576 48.4655Z" fill="#263238"/>
<path d="M547.207 254.699C547.207 254.699 536.218 219.899 563.403 211.298C580.014 206.09 585.893 212.718 585.893 212.718L581.947 245.861C570.821 258.901 551.192 265.312 537.007 267.561C526.69 269.297 547.207 254.699 547.207 254.699Z" fill="#E0E0E0"/>
<path d="M577.074 162.866C578.08 175.393 552.276 181.075 543.912 179.457C543.912 179.457 534.956 189.696 528.662 186.125C525.92 184.586 533.437 179.714 536.849 174.624C540.262 169.534 553.559 167.265 556.38 160.992C561.351 149.905 575.831 148.327 577.074 162.866Z" fill="white"/>
<path d="M596.092 165.372C607.12 199.303 614.438 234.655 602.168 248.129C589.897 261.603 575.555 274.189 560.424 276.162C549.475 277.563 571.432 258.407 571.432 258.407C571.432 258.407 530.004 240.909 561.47 216.525C553.697 205.3 559.694 175.63 557.307 163.892C554.92 152.154 585.853 133.768 596.092 165.372Z" fill="white"/>
<path d="M566.579 123.529C567.447 120.452 558.688 119.584 553.578 113.941C550.501 119.268 558.076 131.045 558.076 131.045C558.076 131.045 565.02 129.092 566.579 123.529Z" fill="#263238"/>
<path d="M587.944 151.996C588.201 145.92 593.586 139.508 589.759 129.881C587.982 125.579 584.838 121.98 580.813 119.642C576.788 117.303 572.105 116.353 567.486 116.94C563.076 117.515 559.006 119.619 555.986 122.884C552.965 126.15 551.185 130.371 550.955 134.813C550.284 143.336 562.16 151.444 560.601 159.591C559.043 167.739 587.944 151.996 587.944 151.996Z" fill="white"/>
<path d="M564.843 117.512C567.467 120.314 558.609 125.009 554.249 125.088C556.748 121.365 560.512 118.674 564.843 117.512Z" fill="#E0E0E0"/>
<path d="M601.201 326.961H601.477C606.685 326.862 611.144 323.509 613.748 317.788C614.036 317.128 614.05 316.382 613.787 315.712C613.524 315.042 613.006 314.505 612.347 314.217C611.688 313.929 610.941 313.915 610.272 314.178C609.602 314.44 609.064 314.958 608.776 315.617C607.04 319.425 604.397 321.536 601.319 321.536C599.439 321.405 597.632 320.755 596.099 319.658C594.567 318.561 593.369 317.059 592.639 315.322C588.911 307.864 591.357 297.448 599.189 287.446C613.412 269.257 613.373 255.882 610.828 247.991C608.441 240.494 603.154 235.819 599.268 234.675C598.585 234.471 597.849 234.546 597.222 234.885C596.595 235.223 596.128 235.797 595.924 236.48C595.72 237.163 595.795 237.899 596.134 238.526C596.472 239.153 597.046 239.62 597.729 239.824C599.8 240.455 603.805 243.651 605.62 249.688C607.77 256.415 607.593 267.876 594.868 284.211C585.735 295.87 583.032 308.437 587.747 317.748C588.903 320.388 590.777 322.652 593.155 324.28C595.534 325.909 598.321 326.838 601.201 326.961Z" fill="white"/>
<path d="M601.221 326.961C606.37 326.961 611.085 323.647 613.689 317.788C613.886 317.154 613.843 316.47 613.569 315.866C613.294 315.262 612.807 314.78 612.2 314.512C611.594 314.244 610.909 314.209 610.278 314.412C609.647 314.616 609.112 315.045 608.777 315.618C606.626 320.372 602.957 322.483 599.012 321.279C598.331 321.07 597.596 321.14 596.967 321.473C596.338 321.806 595.867 322.375 595.658 323.055C595.449 323.735 595.518 324.471 595.851 325.1C596.184 325.728 596.753 326.199 597.433 326.409C598.661 326.781 599.938 326.967 601.221 326.961Z" fill="#E0E0E0"/>
<path opacity="0.2" d="M619.528 141.383C617.677 152.238 616.55 163.205 616.155 174.21C607.356 162.018 597.354 139.864 597.907 129.526L619.528 141.383Z" fill="black"/>
<path d="M565.08 174.742L557.189 164.069L542.59 180.286C542.59 180.286 552.316 189.045 562.495 189.913L563.995 187.388C565.131 185.503 565.82 183.383 566.008 181.191C566.196 178.999 565.878 176.792 565.08 174.742Z" fill="#FFC3BD"/>
<path d="M542.511 163.3L538.191 169.573C537.242 170.943 536.873 172.633 537.165 174.274C537.457 175.915 538.386 177.374 539.75 178.333L542.531 180.305L557.13 164.089L550.205 161.11C548.867 160.53 547.37 160.432 545.967 160.831C544.565 161.23 543.344 162.103 542.511 163.3Z" fill="#FFC3BD"/>
<path d="M591.219 132.88L592.482 136.609L593.803 140.554C594.652 143.237 595.52 145.94 596.269 148.642C597.867 154.048 599.189 159.453 600.333 164.78C601.385 169.848 602.084 174.983 602.424 180.148C602.719 184.219 602.379 188.312 601.418 192.28L604.555 187.585C605.48 186.683 606.632 186.049 607.889 185.75C608.54 185.75 608.579 185.75 608.323 185.888C607.019 186.135 605.681 186.135 604.377 185.888C600.27 185.313 596.219 184.396 592.265 183.146C587.944 181.903 583.525 180.384 579.067 178.826L565.672 173.993L565.395 173.894C563.567 173.228 561.564 173.219 559.73 173.868C557.896 174.517 556.344 175.784 555.342 177.451C554.339 179.118 553.947 181.083 554.234 183.007C554.521 184.932 555.467 186.696 556.913 187.999C560.767 191.479 564.825 194.726 569.065 197.725C573.326 200.796 577.759 203.621 582.342 206.188C587.303 209.02 592.546 211.327 597.986 213.073C601.434 214.198 605.016 214.862 608.639 215.046C611.225 215.152 613.812 214.866 616.313 214.198C619.94 213.234 623.26 211.36 625.959 208.753C627.168 207.577 628.145 206.185 628.84 204.649L629.096 204.058C632.362 196.538 634.099 188.444 634.206 180.246C634.206 176.537 634.206 172.947 634.008 169.435C633.811 165.924 633.318 162.511 632.825 159.138C631.804 152.524 630.394 145.976 628.603 139.528C627.715 136.352 626.788 133.196 625.723 130.079C625.19 128.52 624.657 126.962 624.085 125.403C623.513 123.845 622.921 122.385 622.113 120.531C620.486 116.504 617.352 113.271 613.378 111.52C609.404 109.769 604.904 109.638 600.834 111.155C596.765 112.671 593.449 115.716 591.59 119.641C589.732 123.566 589.478 128.061 590.884 132.17L591.219 132.88Z" fill="#FFC3BD"/>
<path d="M589.641 158.644C596.703 169.021 579.481 187.21 572.774 192.438C572.774 192.438 574.529 205.912 567.704 208.22C564.744 209.266 566.046 200.329 564.468 194.411C562.89 188.492 569.183 175.294 569.045 168.429C568.867 156.435 581.473 146.591 589.641 158.644Z" fill="#263238"/>
<path d="M580.822 122.918C579.974 119.84 588.714 118.972 593.823 113.33C596.92 118.656 589.345 130.434 589.345 130.434C589.345 130.434 582.381 128.481 580.822 122.918Z" fill="#263238"/>
<path opacity="0.6" d="M581.473 125.384C582.46 125.384 586.563 127.12 592.797 117.493C594.257 121.872 587.668 130.572 587.668 130.572C587.668 130.572 582.341 130.276 581.473 125.384Z" fill="white"/>
<path d="M564.764 122.128C563.763 121.687 562.673 121.486 561.58 121.541C560.487 121.596 559.423 121.905 558.471 122.444C557.366 123.194 559.24 124.93 560.444 124.871C561.647 124.811 566.461 122.937 564.764 122.128Z" fill="#263238"/>
<path d="M563.245 129.013C565.212 128.908 567.128 128.355 568.848 127.396C568.926 127.354 568.985 127.283 569.011 127.198C569.037 127.112 569.028 127.021 568.986 126.942C568.944 126.864 568.873 126.805 568.788 126.779C568.703 126.753 568.611 126.762 568.532 126.804C564.291 128.954 561.746 128.54 560.76 127.455C560.419 127.011 560.234 126.466 560.234 125.906C560.234 125.346 560.419 124.802 560.76 124.358C560.818 124.293 560.85 124.208 560.85 124.121C560.85 124.034 560.818 123.949 560.76 123.884C560.724 123.859 560.683 123.842 560.641 123.833C560.598 123.825 560.554 123.825 560.511 123.834C560.468 123.843 560.428 123.861 560.393 123.887C560.358 123.913 560.328 123.945 560.306 123.983C559.858 124.543 559.613 125.239 559.613 125.956C559.613 126.673 559.858 127.369 560.306 127.928C560.691 128.306 561.153 128.599 561.659 128.786C562.166 128.973 562.706 129.05 563.245 129.013Z" fill="#263238"/>
<path d="M555.689 129.25C557.356 128.896 558.912 128.145 560.227 127.06C560.297 127.005 560.343 126.925 560.354 126.836C560.365 126.747 560.341 126.658 560.286 126.587C560.231 126.516 560.15 126.47 560.061 126.459C559.973 126.448 559.883 126.473 559.812 126.528C558.372 127.593 556.044 128.915 555.354 128.501C555.078 128.343 555.097 127.81 555.176 127.396C555.185 127.353 555.184 127.309 555.175 127.266C555.165 127.223 555.147 127.183 555.121 127.148C555.095 127.112 555.062 127.083 555.024 127.061C554.986 127.039 554.944 127.026 554.9 127.021C554.857 127.009 554.812 127.007 554.768 127.015C554.723 127.023 554.682 127.041 554.646 127.068C554.61 127.094 554.58 127.129 554.559 127.169C554.538 127.208 554.527 127.252 554.525 127.297C554.368 128.191 554.525 128.783 554.999 129.073C555.209 129.193 555.447 129.254 555.689 129.25Z" fill="#263238"/>
<path d="M570.564 118.794C571.965 117.67 575.397 118.656 575.516 120.254C575.634 121.852 568.059 120.787 570.564 118.794Z" fill="#263238"/>
<path d="M560.641 119.367C559.26 118.794 556.695 120.412 556.991 121.714C557.287 123.016 563.127 120.314 560.641 119.367Z" fill="#263238"/>
<path d="M564.212 124.732C564.195 124.773 564.188 124.817 564.193 124.861C564.198 124.905 564.214 124.946 564.24 124.982C564.266 125.018 564.3 125.046 564.34 125.065C564.38 125.083 564.424 125.091 564.468 125.088C564.578 125.08 564.683 125.043 564.773 124.98C564.864 124.918 564.935 124.832 564.981 124.732C565.004 124.694 565.015 124.65 565.014 124.605C565.013 124.561 564.999 124.518 564.974 124.48C564.95 124.443 564.915 124.414 564.874 124.396C564.834 124.377 564.789 124.371 564.744 124.377C564.631 124.382 564.522 124.417 564.428 124.48C564.334 124.542 564.259 124.63 564.212 124.732Z" fill="#263238"/>
<path d="M566.816 123.805C566.799 123.846 566.793 123.89 566.798 123.934C566.803 123.978 566.819 124.019 566.844 124.055C566.87 124.091 566.905 124.119 566.945 124.138C566.985 124.156 567.029 124.164 567.072 124.16C567.179 124.153 567.283 124.118 567.372 124.059C567.462 124.001 567.535 123.92 567.585 123.825C567.608 123.787 567.62 123.743 567.618 123.698C567.617 123.654 567.603 123.61 567.579 123.573C567.554 123.536 567.519 123.507 567.478 123.488C567.438 123.47 567.393 123.464 567.349 123.47C567.238 123.474 567.131 123.508 567.037 123.567C566.944 123.625 566.868 123.708 566.816 123.805Z" fill="#263238"/>
<path d="M565.77 125.719C565.748 125.757 565.736 125.801 565.737 125.846C565.738 125.89 565.752 125.934 565.777 125.971C565.802 126.008 565.836 126.037 565.877 126.056C565.918 126.074 565.963 126.08 566.007 126.074C566.117 126.068 566.223 126.032 566.314 125.97C566.405 125.907 566.476 125.82 566.52 125.719C566.543 125.681 566.554 125.637 566.553 125.592C566.552 125.547 566.538 125.504 566.513 125.467C566.488 125.43 566.454 125.4 566.413 125.382C566.372 125.364 566.327 125.358 566.283 125.364C566.173 125.369 566.067 125.406 565.976 125.468C565.886 125.531 565.814 125.618 565.77 125.719Z" fill="#263238"/>
<path d="M555.709 124.654C555.69 124.693 555.682 124.737 555.687 124.78C555.691 124.824 555.708 124.865 555.734 124.9C555.761 124.935 555.797 124.961 555.837 124.977C555.878 124.993 555.923 124.997 555.965 124.989C556.072 124.981 556.176 124.946 556.265 124.888C556.355 124.829 556.428 124.749 556.478 124.654C556.501 124.615 556.513 124.571 556.511 124.527C556.51 124.482 556.496 124.439 556.472 124.402C556.447 124.365 556.412 124.335 556.372 124.317C556.331 124.299 556.286 124.292 556.242 124.299C556.129 124.303 556.019 124.338 555.925 124.401C555.831 124.464 555.756 124.551 555.709 124.654Z" fill="#263238"/>
<path d="M557.268 125.64C557.268 125.818 557.268 125.975 557.504 125.975C557.612 125.972 557.717 125.938 557.808 125.879C557.898 125.82 557.97 125.738 558.017 125.64C558.04 125.602 558.051 125.558 558.05 125.513C558.049 125.469 558.035 125.425 558.011 125.388C557.986 125.351 557.951 125.322 557.91 125.303C557.87 125.285 557.825 125.279 557.78 125.285C557.671 125.293 557.566 125.33 557.475 125.392C557.385 125.455 557.313 125.54 557.268 125.64Z" fill="#263238"/>
<path d="M549.416 112.146C546.485 112.146 544.109 109.77 544.109 106.84C544.109 103.909 546.485 101.533 549.416 101.533C552.347 101.533 554.723 103.909 554.723 106.84C554.723 109.77 552.347 112.146 549.416 112.146Z" fill="#263238"/>
<path d="M549.416 113.231C550.68 113.231 551.916 112.856 552.967 112.154C554.018 111.452 554.837 110.453 555.321 109.285C555.805 108.117 555.931 106.832 555.685 105.592C555.438 104.353 554.829 103.214 553.936 102.32C553.042 101.426 551.903 100.817 550.663 100.57C549.423 100.324 548.138 100.45 546.97 100.934C545.802 101.418 544.804 102.237 544.101 103.288C543.399 104.339 543.024 105.575 543.024 106.839C543.029 108.533 543.704 110.156 544.902 111.353C546.1 112.551 547.722 113.226 549.416 113.231ZM549.416 102.637C550.247 102.637 551.059 102.884 551.75 103.346C552.441 103.807 552.98 104.464 553.298 105.231C553.616 105.999 553.699 106.844 553.537 107.659C553.375 108.474 552.975 109.223 552.387 109.811C551.799 110.398 551.051 110.799 550.236 110.961C549.421 111.123 548.576 111.04 547.808 110.722C547.04 110.403 546.384 109.865 545.922 109.174C545.46 108.483 545.214 107.67 545.214 106.839C545.206 106.282 545.309 105.728 545.516 105.21C545.724 104.692 546.032 104.221 546.422 103.823C546.813 103.425 547.279 103.108 547.793 102.891C548.306 102.674 548.858 102.561 549.416 102.559V102.637Z" fill="white"/>
<path d="M592.699 57.185C582.322 45.664 588.753 34.5968 588.753 34.5968C588.753 34.5968 553.559 32.6241 549.495 25.8969C553.579 12.0875 568.177 1.05976 592.758 10.6671C617.338 20.2745 606.271 56.317 606.271 56.317L592.699 57.185Z" fill="#263238"/>
<path d="M219.194 618.28L226.099 601.906C226.336 601.601 226.452 601.22 226.427 600.834C226.402 600.449 226.236 600.086 225.961 599.815L213.887 588.373C212.815 587.626 211.605 587.099 210.328 586.823C209.051 586.548 207.731 586.529 206.446 586.767C205.162 587.006 203.937 587.497 202.844 588.213C201.75 588.929 200.81 589.855 200.078 590.937C196.685 595.948 194.949 601.216 189.326 605.871C180.39 613.309 183.408 610.33 170.27 613.881C162.378 616.011 163.049 624.474 166.659 624.297C183.073 623.449 197.908 623.015 214.381 620.351C216.139 620.095 217.799 619.38 219.194 618.28Z" fill="#263238"/>
<path d="M253.836 583.618C233.714 577.266 147.563 574.228 158.196 510.626L235.844 505.299C235.844 505.299 343.36 544.755 355.256 593.916C370.506 656.926 218.879 623.823 218.879 623.823C211.244 622.048 205.681 612.125 206.726 600.742C206.726 600.703 213.887 583.244 253.836 583.618Z" fill="#00CB20"/>
<path opacity="0.2" d="M253.836 583.618C233.714 577.266 147.563 574.228 158.196 510.626L235.844 505.299C235.844 505.299 343.36 544.755 355.256 593.916C370.506 656.926 218.879 623.823 218.879 623.823C211.244 622.048 205.681 612.125 206.726 600.742C206.726 600.703 213.887 583.244 253.836 583.618Z" fill="black"/>
<path d="M135.194 620.47L142.73 604.372C142.989 604.085 143.132 603.713 143.132 603.326C143.132 602.94 142.989 602.567 142.73 602.281L131.11 590.444C130.07 589.648 128.882 589.068 127.616 588.736C126.349 588.404 125.029 588.328 123.733 588.511C122.436 588.695 121.19 589.135 120.065 589.805C118.94 590.476 117.96 591.364 117.182 592.417C113.592 597.309 111.639 602.498 105.859 606.936C96.6261 614.038 99.8022 611.178 86.5058 614.196C78.4569 616.031 78.8909 624.534 82.5602 624.474C98.9934 624.257 113.848 624.474 130.4 622.285C132.127 622.102 133.778 621.477 135.194 620.47Z" fill="#263238"/>
<path d="M164.766 587.012C144.92 579.91 99.1315 566.81 124.363 501.729L207.081 510.251C207.081 510.251 279.679 551.008 289.701 600.624C302.524 664.186 134.681 625.974 134.681 625.974C127.125 623.902 121.937 613.782 123.416 602.439C123.416 602.439 124.876 585.118 164.766 587.012Z" fill="#00CB20"/>
<path d="M229.847 380.897C232.878 387.558 236.679 393.841 241.171 399.618C245.307 404.974 249.802 410.043 254.625 414.789C259.202 419.405 263.838 423.627 268.257 427.671C272.676 431.715 276.858 435.562 280.449 439.291L281.751 440.652C283.218 442.184 285.041 443.329 287.057 443.986C294.476 446.324 302.186 447.605 309.961 447.793C316.948 448.021 323.942 447.758 330.892 447.004C337.679 446.254 344.327 445.189 350.876 443.808C357.457 442.437 363.957 440.705 370.348 438.62C372.334 437.945 374.019 436.59 375.103 434.794C376.187 432.998 376.602 430.876 376.274 428.804C375.946 426.732 374.896 424.842 373.31 423.469C371.724 422.096 369.703 421.327 367.606 421.299H367.211C361.174 421.299 354.802 421.299 348.647 421.141C342.492 420.983 336.337 420.766 330.34 420.273C324.513 419.888 318.712 419.19 312.96 418.182C307.974 417.383 303.105 415.979 298.46 414L305.049 418.695C300.808 413.132 296.468 408.259 292.246 403.682C288.024 399.105 283.96 394.785 280.153 390.563C276.345 386.341 272.854 382.179 269.796 378.036C266.851 374.129 264.213 370 261.905 365.687L261.747 365.41C259.693 361.172 256.04 357.924 251.591 356.379C247.143 354.835 242.262 355.12 238.024 357.174C233.786 359.228 230.538 362.881 228.993 367.33C227.448 371.778 227.734 376.659 229.788 380.897H229.847Z" fill="#FFB573"/>
<path d="M226.158 362.155C230.755 347.754 245.176 328.263 278.989 381.607C271.098 401.177 240.046 420.332 240.046 420.332C240.046 420.332 215.229 396.383 226.158 362.155Z" fill="#263238"/>
<path d="M358.432 427.217L371.255 411.435L385.183 431.518C385.183 431.518 371.827 444.439 363.818 438.462L358.432 427.217Z" fill="#FFB573"/>
<path d="M392.364 409.009L396.053 416.9C396.76 418.415 396.908 420.131 396.471 421.745C396.034 423.359 395.041 424.766 393.666 425.718L385.262 431.498L371.334 411.415L382.835 405.714C383.676 405.296 384.591 405.049 385.528 404.989C386.464 404.928 387.404 405.055 388.291 405.362C389.178 405.668 389.995 406.149 390.695 406.775C391.394 407.401 391.961 408.161 392.364 409.009Z" fill="#FFB573"/>
<path d="M241.566 345.071C213.276 338.206 201.104 337.397 180.41 336.825C174.594 336.637 168.8 337.633 163.381 339.754C157.962 341.874 153.03 345.074 148.886 349.159C144.742 353.244 141.472 358.129 139.274 363.517C137.076 368.905 135.997 374.684 136.101 380.502C136.733 447.418 125.449 486.282 124.265 501.729C168.455 530.649 232.57 530.334 244.406 518.477C269.165 467.876 266.777 406.128 266.797 380.206C266.797 366.18 256.243 348.622 241.566 345.071Z" fill="#263238"/>
<path d="M195.521 298.672C195.975 321.299 190.254 327.632 185.657 341.224C187.63 350.062 210.021 360.834 228.269 365.588C239.77 359.67 240.283 349.806 236.969 347.379C225.369 340.258 221.857 339.035 227.105 326.725L195.521 298.672Z" fill="#FFB573"/>
<path opacity="0.2" d="M208.739 313.645L216.117 316.999L227.125 326.764C226.281 328.636 225.621 330.585 225.152 332.584C219.056 331.282 212.546 327.435 210.672 322.404C209.491 319.629 208.836 316.659 208.739 313.645Z" fill="black"/>
<path d="M252.416 250.082C269.401 256.77 266.777 277.603 251.765 293.483C238.744 273.381 252.416 250.082 252.416 250.082Z" fill="#263238"/>
<path d="M193.963 269.632C193.331 292.083 191.832 305.142 202.11 317.571C217.557 336.194 246.123 328.204 253.402 306.326C260.011 286.598 259.932 253.239 238.823 242.566C234.148 240.219 228.954 239.095 223.726 239.298C218.499 239.501 213.408 241.025 208.929 243.728C204.449 246.43 200.727 250.223 198.11 254.753C195.493 259.283 194.066 264.402 193.963 269.632Z" fill="#FFB573"/>
<path d="M194.752 295.14C206.805 296.285 211.244 276.478 208.739 269.356C206.233 262.235 204.043 255.409 214.499 258.565C224.955 261.722 245.018 272.888 255.651 266.299C266.837 259.354 273.978 239.153 259.597 230.789C245.215 222.424 236.219 231.499 236.219 231.499C236.219 231.499 222.41 213.941 197.08 221.3C181.712 225.778 187.65 236.766 187.65 236.766C187.65 236.766 168.06 242.152 174.846 263.241C180.666 281.213 189.484 281.469 194.752 295.14Z" fill="#263238"/>
<path d="M183.073 290.09C183.672 292.816 184.805 295.396 186.406 297.682C188.008 299.967 190.046 301.913 192.404 303.406C198.776 307.352 204.102 302.183 204.122 295.101C204.122 288.749 200.887 279.003 193.647 277.918C186.407 276.833 181.652 283.343 183.073 290.09Z" fill="#FFB573"/>
<path d="M225.487 286.342C225.191 288.137 225.902 289.755 227.085 289.932C228.269 290.11 229.472 288.808 229.768 287.013C230.064 285.217 229.334 283.6 228.17 283.402C227.006 283.205 225.783 284.547 225.487 286.342Z" fill="#263238"/>
<path d="M249.042 289.124C248.746 290.939 249.456 292.536 250.64 292.734C251.824 292.931 253.027 291.609 253.323 289.794C253.619 287.979 252.909 286.381 251.725 286.204C250.541 286.026 249.338 287.328 249.042 289.124Z" fill="#263238"/>
<path d="M241.585 286.164C241.585 286.164 243.972 297.212 247.661 302.933C243.972 305.399 238.764 303.209 238.764 303.209L241.585 286.164Z" fill="#ED893E"/>
<path d="M230.123 307.825C228.149 307.282 226.31 306.336 224.721 305.046C223.131 303.755 221.827 302.149 220.891 300.329C220.833 300.198 220.83 300.05 220.882 299.917C220.933 299.783 221.036 299.676 221.167 299.619C221.298 299.561 221.446 299.558 221.579 299.61C221.712 299.661 221.819 299.764 221.877 299.895C222.959 301.888 224.497 303.598 226.365 304.884C228.234 306.169 230.38 306.995 232.629 307.293C232.698 307.302 232.765 307.326 232.826 307.362C232.886 307.398 232.938 307.447 232.978 307.504C233.019 307.562 233.048 307.627 233.062 307.695C233.077 307.764 233.077 307.835 233.063 307.904C233.053 307.975 233.029 308.042 232.993 308.103C232.957 308.164 232.909 308.217 232.852 308.26C232.795 308.302 232.731 308.332 232.662 308.349C232.593 308.366 232.521 308.369 232.451 308.358C231.665 308.229 230.887 308.051 230.123 307.825Z" fill="#263238"/>
<path d="M220.851 276.281C220.673 276.229 220.511 276.134 220.378 276.005C220.277 275.906 220.197 275.787 220.142 275.657C220.088 275.527 220.06 275.387 220.06 275.245C220.06 275.104 220.088 274.964 220.142 274.833C220.197 274.703 220.277 274.585 220.378 274.486C221.584 273.269 223.064 272.359 224.695 271.834C226.326 271.309 228.059 271.183 229.748 271.467C229.886 271.497 230.016 271.555 230.13 271.636C230.245 271.717 230.342 271.821 230.415 271.941C230.489 272.06 230.538 272.194 230.559 272.333C230.58 272.472 230.573 272.614 230.537 272.75C230.472 273.025 230.301 273.264 230.061 273.415C229.821 273.566 229.532 273.618 229.255 273.558C227.915 273.354 226.545 273.472 225.259 273.9C223.973 274.329 222.807 275.057 221.857 276.024C221.725 276.148 221.563 276.236 221.387 276.281C221.211 276.326 221.027 276.326 220.851 276.281Z" fill="#263238"/>
<path d="M258.433 279.911C258.257 279.893 258.09 279.831 257.945 279.731C257.8 279.631 257.683 279.496 257.604 279.339C257.011 278.134 256.14 277.087 255.063 276.284C253.986 275.482 252.734 274.946 251.409 274.722C251.269 274.71 251.133 274.67 251.009 274.605C250.884 274.539 250.774 274.45 250.684 274.342C250.594 274.234 250.526 274.109 250.485 273.974C250.444 273.84 250.429 273.698 250.443 273.558C250.473 273.274 250.614 273.012 250.836 272.831C251.057 272.65 251.342 272.564 251.627 272.592C253.307 272.843 254.902 273.496 256.275 274.495C257.649 275.495 258.761 276.811 259.518 278.333C259.65 278.586 259.676 278.882 259.591 279.156C259.506 279.429 259.317 279.658 259.064 279.792C258.87 279.893 258.65 279.935 258.433 279.911Z" fill="#263238"/>
<path d="M144.367 363.635C143.37 368.721 142.94 373.901 143.085 379.082C143.217 383.709 143.658 388.323 144.407 392.891C145.834 401.508 148.012 409.984 150.917 418.221C153.7 426.298 157.063 434.164 160.978 441.757C162.951 445.584 165.042 449.391 167.468 453.159C170.004 457.172 172.825 460.995 175.912 464.601L176.504 465.272C176.944 465.772 177.426 466.234 177.944 466.653C182.651 470.328 188.053 473.012 193.825 474.544C198.493 475.782 203.269 476.574 208.088 476.911C216.684 477.454 225.312 477.164 233.852 476.043C249.996 473.963 265.869 470.153 281.198 464.68C283.22 463.953 284.909 462.516 285.951 460.637C286.992 458.758 287.315 456.564 286.858 454.464C286.402 452.364 285.198 450.502 283.471 449.224C281.744 447.946 279.611 447.339 277.47 447.517H277.154C269.816 448.109 262.122 448.701 254.665 449.016C247.208 449.332 239.731 449.529 232.471 449.312C225.531 449.216 218.61 448.556 211.777 447.339C208.885 446.821 206.05 446.021 203.314 444.952C201.593 444.348 200.02 443.387 198.697 442.131L200.67 444.104C198.943 441.573 197.375 438.938 195.975 436.213C194.476 433.254 192.937 430.157 191.576 426.961C188.807 420.527 186.41 413.941 184.395 407.233C182.391 400.697 180.861 394.025 179.818 387.269C178.828 381.616 178.635 375.852 179.246 370.145V369.553C179.647 367.255 179.592 364.901 179.084 362.624C178.576 360.347 177.624 358.193 176.283 356.284C174.942 354.376 173.238 352.75 171.269 351.499C169.299 350.249 167.103 349.399 164.805 348.997C162.507 348.595 160.153 348.65 157.876 349.159C155.599 349.667 153.445 350.619 151.536 351.96C149.627 353.301 148.001 355.005 146.751 356.974C145.501 358.943 144.65 361.14 144.249 363.438L144.367 363.635Z" fill="#FFB573"/>
<path d="M425.901 628.163C462.752 630.57 494.376 604.747 490.016 559.945C469.854 599.164 438.744 623.883 425.901 628.163Z" fill="#263238"/>
<path opacity="0.1" d="M425.901 628.163C462.2 621.357 486.445 588.491 471.117 546.175C461.292 589.162 437.284 620.825 425.901 628.163Z" fill="#263238"/>
<path opacity="0.1" d="M425.901 628.163C460.779 640.355 498.163 623.942 505.956 579.633C476.029 612.026 439.414 627.493 425.901 628.163Z" fill="#263238"/>
<path d="M321.226 463.003C321.226 463.003 303.076 555.329 318.74 622.797C308.383 622.797 306.903 633.687 313.098 639.842H439.572C441.844 639.842 444.092 639.381 446.181 638.487C448.27 637.594 450.156 636.286 451.725 634.643C453.294 633 454.514 631.056 455.31 628.929C456.107 626.801 456.464 624.534 456.36 622.265C455.216 596.481 444.662 560.655 414.478 546.688C406.844 523.271 389.168 475.787 396.98 448.405C404.792 421.023 368.888 395.081 341.072 414.256C322.922 407.825 290.589 383.303 281.317 411.06C272.045 438.817 321.226 463.003 321.226 463.003Z" fill="#263238"/>
<path d="M305.799 453.712C292.246 448.937 269.993 446.925 283.191 426.428C306.095 428.223 305.799 453.712 305.799 453.712Z" fill="#263238"/>
<path opacity="0.2" d="M368.355 632.148H368.612C368.836 632.08 369.025 631.925 369.136 631.718C369.247 631.511 369.271 631.269 369.203 631.044C368.896 629.728 368.915 628.357 369.259 627.05C369.603 625.744 370.261 624.541 371.176 623.547C375.122 618.595 383.289 615.538 390.904 616.129C391.052 616.141 391.2 616.114 391.335 616.052C391.47 615.99 391.586 615.894 391.673 615.774C391.76 615.653 391.816 615.512 391.836 615.365C391.857 615.217 391.842 615.067 391.792 614.926C378.752 579.633 400.393 557.893 400.61 557.716C400.76 557.548 400.84 557.329 400.834 557.103C400.829 556.878 400.738 556.663 400.58 556.503C400.422 556.342 400.208 556.248 399.983 556.239C399.758 556.229 399.538 556.306 399.367 556.453C399.13 556.67 377.193 578.647 389.681 614.315C381.79 614.117 373.899 617.293 369.756 622.462C368.64 623.667 367.842 625.132 367.435 626.724C367.029 628.315 367.026 629.983 367.428 631.576C367.494 631.763 367.622 631.922 367.791 632.026C367.959 632.13 368.159 632.173 368.355 632.148Z" fill="white"/>
<path d="M295.422 399.322C304.358 398.158 311.539 404.905 303.648 408.535C295.757 412.165 302.425 404.708 298.44 407.332C294.455 409.956 289.977 411.001 289.109 408.535C288.241 406.069 289.938 405.418 290.865 403.919C291.792 402.42 286.446 405.162 287.551 403.406C289.57 401.107 292.379 399.649 295.422 399.322Z" fill="white"/>
<path d="M292.759 423.666C283.526 430.571 286.84 439.981 277.884 437.476C273.564 436.233 272.656 423.863 280.39 417.748C283.072 419.523 286.406 415.144 286.406 415.144C286.406 415.144 288.004 421.693 292.759 423.666Z" fill="#ED847E"/>
<path d="M303.589 427.316C304.595 427.316 305.246 427.316 305.345 427.316C305.462 427.304 305.575 427.268 305.678 427.212C305.781 427.156 305.872 427.079 305.946 426.988C306.019 426.896 306.073 426.79 306.106 426.677C306.138 426.565 306.148 426.446 306.134 426.33C306.104 426.099 305.988 425.889 305.808 425.742C305.628 425.596 305.399 425.523 305.167 425.54C305.049 425.54 293.824 426.625 288.636 418.577C288.25 418.03 287.982 417.409 287.85 416.754C287.717 416.098 287.723 415.422 287.866 414.769C288.742 412.472 290.369 410.54 292.482 409.285C292.682 409.166 292.827 408.973 292.886 408.748C292.945 408.523 292.914 408.283 292.798 408.081C292.739 407.98 292.66 407.891 292.567 407.82C292.473 407.749 292.366 407.697 292.253 407.668C292.139 407.639 292.02 407.632 291.904 407.649C291.788 407.666 291.676 407.705 291.575 407.766C289.044 409.252 287.122 411.586 286.15 414.355C285.946 415.241 285.929 416.159 286.099 417.053C286.269 417.946 286.622 418.794 287.136 419.543C291.654 426.487 299.94 427.316 303.589 427.316Z" fill="white"/>
<path d="M281.889 419.07C284.848 419.07 287.59 415.124 287.807 414.67C287.89 414.576 287.952 414.464 287.988 414.344C288.025 414.223 288.035 414.097 288.019 413.972C288.003 413.847 287.96 413.727 287.894 413.62C287.828 413.513 287.74 413.421 287.636 413.351C287.531 413.28 287.413 413.233 287.289 413.211C287.165 413.19 287.038 413.195 286.916 413.227C286.794 413.258 286.681 413.315 286.583 413.394C286.484 413.473 286.404 413.572 286.347 413.684C285.696 414.611 283.506 417.274 281.83 417.274C281.613 417.274 280.902 417.274 280.172 415.953C280.055 415.749 279.861 415.6 279.633 415.539C279.406 415.478 279.163 415.509 278.959 415.627C278.755 415.745 278.606 415.939 278.545 416.166C278.484 416.394 278.516 416.636 278.634 416.84C278.907 417.458 279.344 417.99 279.896 418.38C280.449 418.769 281.096 419 281.77 419.05L281.889 419.07Z" fill="white"/>
<path d="M354.033 414.611C361.628 407.864 375.358 415.361 373.761 425.698C372.163 436.035 340.539 426.586 354.033 414.611Z" fill="white"/>
<path d="M356.44 415.815C357.959 413.507 361.687 415.519 361.806 418.813C361.924 422.108 353.737 419.898 356.44 415.815Z" fill="#263238"/>
<path d="M349.081 412.165C349.693 414.848 345.668 416.111 343.163 414C340.657 411.889 347.976 407.391 349.081 412.165Z" fill="#263238"/>
<path d="M384.926 425.304C387.116 406.701 418.878 444.578 416.708 468.468C414.538 492.358 393.607 489.813 387.688 488.018C381.77 486.223 382.934 441.875 384.926 425.304Z" fill="#263238"/>
<path opacity="0.8" d="M384.926 425.304C387.116 406.701 418.878 444.578 416.708 468.468C414.538 492.358 393.607 489.813 387.688 488.018C381.77 486.223 382.934 441.875 384.926 425.304Z" fill="white"/>
<path d="M327.006 639.882H358.057C360.977 632.563 376.483 592.654 374.609 575.313C376.438 576.939 377.869 578.964 378.791 581.231C379.261 579.016 379.143 576.717 378.451 574.562C377.759 572.406 376.516 570.469 374.846 568.941C376.345 568.014 379.482 569.631 379.482 569.631C379.171 568.224 378.58 566.894 377.742 565.721C376.905 564.548 375.839 563.556 374.609 562.806C375.42 561.953 376.087 560.974 376.582 559.906C385.814 542.427 379.876 520.963 363.778 509.462C354.013 502.459 342.65 502.735 340.105 523.843C337.56 544.952 348.766 603.602 337.58 629.919C330.301 628.854 327.716 636.844 327.006 639.882Z" fill="white"/>
<path opacity="0.2" d="M350.304 469.296C358.886 469.296 367.428 466.732 371.176 461.977C371.32 461.791 371.384 461.556 371.354 461.323C371.324 461.09 371.204 460.879 371.018 460.735C370.833 460.594 370.601 460.53 370.369 460.555C370.138 460.581 369.926 460.695 369.776 460.873C363.857 468.448 343.676 469.869 333.871 463.398C333.774 463.333 333.665 463.288 333.551 463.265C333.436 463.243 333.318 463.243 333.204 463.266C333.089 463.289 332.98 463.334 332.883 463.399C332.786 463.464 332.703 463.547 332.638 463.644C332.573 463.742 332.528 463.851 332.506 463.965C332.483 464.08 332.483 464.197 332.506 464.312C332.529 464.426 332.574 464.535 332.639 464.632C332.704 464.729 332.788 464.813 332.885 464.877C338.161 467.957 344.198 469.488 350.304 469.296Z" fill="white"/>
<path d="M272.203 448.03L291.753 442.27V466.692C291.753 466.692 273.426 469.77 270.21 460.301L272.203 448.03Z" fill="#FFB573"/>
<path d="M310.415 452.232L308.995 460.794C308.727 462.447 307.879 463.951 306.603 465.036C305.327 466.121 303.706 466.715 302.031 466.712H291.753V442.289L304.457 444.104C305.385 444.241 306.276 444.561 307.078 445.045C307.881 445.529 308.58 446.167 309.134 446.923C309.688 447.679 310.087 448.538 310.307 449.449C310.527 450.361 310.563 451.306 310.415 452.232Z" fill="#FFB573"/>
<path d="M151.449 349.017C163.641 340.1 185.697 347.281 189.622 398.159C171.197 408.417 139.337 398.159 139.337 398.159C139.337 398.159 129.788 364.799 151.449 349.017Z" fill="#263238"/>
</svg>
